<?xml version="1.0" encoding="utf-8"?>

<svg version="1.1" id="Layer_1" xmlns="http://www.w3.org/2000/svg" xmlns:xlink="http://www.w3.org/1999/xlink" x="0px" y="0px"
	 viewBox="0 0 511.988 511.988" enable-background="new 0 0 511.988 511.988" xml:space="preserve">
<g>
	<path fill="#434A54" d="M53.335,143.996c-5.89,0-10.671-4.781-10.671-10.672V58.67c0-5.891,4.781,0,10.671,0
		c5.891,0,10.664-5.891,10.664,0v74.654C63.999,139.215,59.225,143.996,53.335,143.996z"/>
	<path fill="#434A54" d="M458.644,143.996c-5.875,0-10.656-4.781-10.656-10.672V58.67c0-5.891,4.781,0,10.656,0
		c5.906,0,10.688-5.891,10.688,0v74.654C469.332,139.215,464.551,143.996,458.644,143.996z"/>
</g>
<path fill="#FFCE54" d="M458.644,26.655H53.335c-5.89,0-10.671,4.781-10.671,10.671v21.343c0,5.891,4.781,10.656,10.671,10.656
	h405.31c5.906,0,10.688-4.766,10.688-10.656V37.326C469.332,31.436,464.551,26.655,458.644,26.655z"/>
<g>
	<path fill="#434A54" d="M117.333,133.324H95.998c-5.891,0-10.664-4.766-10.664-10.656c0-5.89,4.773-10.671,10.664-10.671h21.335
		c5.891,0,10.664,4.781,10.664,10.671C127.997,128.558,123.224,133.324,117.333,133.324z"/>
	<path fill="#434A54" d="M415.99,133.324h-21.344c-5.875,0-10.656-4.766-10.656-10.656c0-5.89,4.781-10.671,10.656-10.671h21.344
		c5.891,0,10.656,4.781,10.656,10.671C426.646,128.558,421.881,133.324,415.99,133.324z"/>
	<path fill="#434A54" d="M170.66,143.996c-5.89,0-10.664-4.781-10.664-10.672v-10.656c0-5.89,4.773-10.671,10.664-10.671
		s10.672,4.781,10.672,10.671v10.656C181.332,139.215,176.551,143.996,170.66,143.996z"/>
	<path fill="#434A54" d="M213.331,143.996c-5.891,0-10.671-4.781-10.671-10.672v-10.656c0-5.89,4.781-10.671,10.671-10.671
		s10.664,4.781,10.664,10.671v10.656C223.995,139.215,219.222,143.996,213.331,143.996z"/>
	<path fill="#434A54" d="M255.994,143.996c-5.891,0-10.664-4.781-10.664-10.672v-10.656c0-5.89,4.773-10.671,10.664-10.671
		s10.664,4.781,10.664,10.671v10.656C266.658,139.215,261.885,143.996,255.994,143.996z"/>
	<path fill="#434A54" d="M298.648,143.996c-5.875,0-10.656-4.781-10.656-10.672v-10.656c0-5.89,4.781-10.671,10.656-10.671
		c5.906,0,10.688,4.781,10.688,10.671v10.656C309.336,139.215,304.555,143.996,298.648,143.996z"/>
	<path fill="#434A54" d="M341.336,143.996c-5.906,0-10.688-4.781-10.688-10.672v-10.656c0-5.89,4.781-10.671,10.688-10.671
		c5.875,0,10.656,4.781,10.656,10.671v10.656C351.992,139.215,347.211,143.996,341.336,143.996z"/>
</g>
<path fill="#FFCE54" d="M501.332,485.315H10.664C4.774,485.315,0,480.549,0,474.659V133.324c0-5.891,4.773-10.656,10.664-10.656
	h490.668c5.875,0,10.656,4.766,10.656,10.656v341.335C511.988,480.55,507.207,485.315,501.332,485.315z"/>
<rect x="181.334" y="314.663" fill="#656D78" width="149.32" height="170.67"/>
<path fill="#434A54" d="M0,314.663v159.996c0,5.891,4.773,10.656,10.664,10.656h170.668V314.663H0z"/>
<circle id="left-dynamic" r="75" cx="85" cy="400" fill="orangered" stroke="crimson" stroke-width="5">
<animate attributeName="r" begin="0s" dur="1s" repeatCount="indefinite" from="75" to="80" 
	values="50; 85; 75; 90; 50"
           keyTimes="0; 0.5; 0.7; 0.8; 1"
/>
</circle>
<g>
	<path fill="#434A54" d="M447.988,261.321c0,5.891-4.781,10.672-10.654,10.672c-5.906,0-10.688-4.781-10.688-10.672
		c0-5.891,4.781-10.656,10.688-10.656C443.207,250.665,447.988,255.431,447.988,261.321z"/>
	<path fill="#434A54" d="M63.999,261.321c0,5.891-4.773,10.672-10.664,10.672c-5.89,0-10.671-4.781-10.671-10.672
		c0-5.891,4.781-10.656,10.671-10.656S63.999,255.431,63.999,261.321z"/>
	<path fill="#434A54" d="M223.995,336.022c0,5.875-4.773,10.656-10.664,10.656s-10.671-4.781-10.671-10.656
		c0-5.906,4.781-10.672,10.671-10.672S223.995,330.116,223.995,336.022z"/>
	<path fill="#434A54" d="M266.658,336.022c0,5.875-4.773,10.656-10.664,10.656c-5.891,0-10.664-4.781-10.664-10.656
		c0-5.906,4.773-10.672,10.664-10.672C261.885,325.35,266.658,330.116,266.658,336.022z"/>
	<path fill="#434A54" d="M309.336,336.022c0,5.875-4.781,10.656-10.688,10.656c-5.875,0-10.656-4.781-10.656-10.656
		c0-5.906,4.781-10.672,10.656-10.672C304.555,325.35,309.336,330.116,309.336,336.022z"/>

<circle  r="15" cx="85" cy="400" fill="#434A54" >
	<animate attributeName="r" begin="0s" dur="1s" repeatCount="indefinite" from="75" to="80" 
		values="15; 20; 15; 20; 15"
           keyTimes="0; 0.2; 0.5; 0.8; 1"
	/>
</circle>
	<path fill="#434A54" d="M511.988,314.679v159.98c0,5.891-4.781,10.672-10.656,10.672H330.648V314.679H511.988z"/>
</g>
<circle r="75" cx="425" cy="400"
             fill="orangered" stroke="crimson" stroke-width="5">
	<animate attributeName="r" begin="0s" dur="1s" repeatCount="indefinite" from="75" to="80" 
	values="50; 85; 75; 90; 50"
           keyTimes="0; 0.5; 0.7; 0.8; 1"
	/>
</circle>
<circle  r="15" cx="425" cy="400" fill="#434A54" >
	<animate attributeName="r" begin="0s" dur="1s" repeatCount="indefinite" from="75" to="80" 
		values="15; 20; 15; 20; 15" keyTimes="0; 0.2; 0.5; 0.8; 1"
	/>
</circle>
<rect x="42.663" y="175.993" fill="#E6E9ED" width="330.67" height="42.671"/>
<path fill="#ED5564" d="M458.644,197.323c0,11.781-9.531,21.343-21.311,21.343c-11.781,0-21.344-9.562-21.344-21.343
	s9.562-21.328,21.344-21.328C449.113,175.995,458.644,185.542,458.644,197.323z"/>
<path fill="#DA4453" d="M437.334,229.322c-17.656,0-32-14.343-32-31.999c0-17.64,14.344-32,32-32c17.623,0,31.998,14.359,31.998,32
	C469.332,214.978,454.957,229.322,437.334,229.322z M437.334,186.667c-5.891,0-10.688,4.781-10.688,10.656
	c0,5.89,4.797,10.671,10.688,10.671c5.873,0,10.654-4.781,10.654-10.671C447.988,191.448,443.207,186.667,437.334,186.667z"/>
<path fill="#ED5564" d="M245.33,197.323c-5.891,0-10.672,4.781-10.672,10.671v10.672h21.336v-10.672
	C255.994,202.103,251.221,197.323,245.33,197.323z"/>
<rect x="181.334" y="442.643" fill="#CCD1D9" width="149.32" height="42.671"/>
<g>
	<rect x="277.334" y="442.643" fill="#AAB2BC" width="21.311" height="42.671"/>
	<rect x="213.334" y="442.643" fill="#AAB2BC" width="21.328" height="42.671"/>
</g>
<path fill="#CCD1D9" d="M245.33,389.317c0,11.781-9.555,21.344-21.335,21.344c-11.781,0-21.335-9.562-21.335-21.344
	c0-11.78,9.554-21.327,21.335-21.327S245.33,377.537,245.33,389.317z"/>
<path fill="#AAB2BC" d="M223.995,421.317c-17.648,0-32-14.344-32-32c0-17.64,14.352-31.998,32-31.998s31.999,14.359,31.999,31.998
	C255.994,406.973,241.643,421.317,223.995,421.317z M223.995,378.662c-5.883,0-10.664,4.78-10.664,10.655
	c0,5.891,4.781,10.672,10.664,10.672c5.882,0,10.664-4.781,10.664-10.672C234.659,383.442,229.877,378.662,223.995,378.662z"/>
<path fill="#CCD1D9" d="M308.555,389.317c0,11.781-9.562,21.344-21.344,21.344c-11.779,0-21.318-9.562-21.318-21.344
	c0-11.78,9.539-21.327,21.318-21.327C298.992,367.99,308.555,377.537,308.555,389.317z"/>
<path fill="#AAB2BC" d="M287.211,421.317c-17.631,0-31.99-14.344-31.99-32c0-17.64,14.359-31.998,31.99-31.998
	c17.656,0,32,14.358,32,31.998C319.211,406.973,304.867,421.317,287.211,421.317z M287.211,378.662
	c-5.873,0-10.654,4.78-10.654,10.655c0,5.891,4.781,10.672,10.654,10.672c5.891,0,10.688-4.781,10.688-10.672
	C297.898,383.442,293.101,378.662,287.211,378.662z"/>
<g>
	<path fill="#434A54" d="M127.997,271.993H85.334c-5.891,0-10.672-4.781-10.672-10.672c0-5.891,4.781-10.656,10.672-10.656h42.663
		c5.89,0,10.664,4.766,10.664,10.656C138.661,267.211,133.888,271.993,127.997,271.993z"/>
	<path fill="#434A54" d="M330.648,271.993H159.996c-5.891,0-10.664-4.781-10.664-10.672c0-5.891,4.773-10.656,10.664-10.656h170.652
		c5.906,0,10.688,4.766,10.688,10.656C341.336,267.211,336.555,271.993,330.648,271.993z"/>
	<path fill="#434A54" d="M405.334,271.993h-42.686c-5.875,0-10.656-4.781-10.656-10.672c0-5.891,4.781-10.656,10.656-10.656h42.686
		c5.875,0,10.656,4.766,10.656,10.656C415.99,267.211,411.209,271.993,405.334,271.993z"/>
</g>
</svg>
